<?xml version="1.0" standalone="no"?>
<!DOCTYPE svg PUBLIC "-//W3C//DTD SVG 20010904//EN"
 "http://www.w3.org/TR/2001/REC-SVG-20010904/DTD/svg10.dtd">
<svg version="1.0" xmlns="http://www.w3.org/2000/svg"
 width="180.000000pt" height="180.000000pt" viewBox="0 0 180.000000 180.000000"
 preserveAspectRatio="xMidYMid meet">
<metadata>
Created by potrace 1.11, written by Peter Selinger 2001-2013
</metadata>
<g transform="translate(0.000000,180.000000) scale(0.100000,-0.100000)"
fill="#000000" stroke="none">
<path d="M298 1369 c-8 -5 -13 -265 -9 -531 l1 -57 53 56 c28 31 97 103 152
160 l99 104 1 122 c1 67 -1 129 -3 137 -2 12 -27 15 -143 15 -78 0 -145 -3
-151 -6z"/>
<path d="M780 1249 c-174 -182 -228 -239 -411 -429 -320 -334 -367 -385 -364
-390 2 -3 135 -5 296 -5 l293 1 47 94 46 95 209 -1 c255 -2 254 -2 254 -14 0
-5 18 -47 40 -92 l40 -83 277 1 c153 1 281 2 286 3 19 3 3 35 -40 80 -41 42
-241 250 -423 441 -296 310 -406 420 -419 420 -9 0 -68 -55 -131 -121z m190
-282 c1 -1 23 -47 50 -102 41 -86 45 -101 31 -106 -9 -3 -28 -3 -43 2 -14 4
-29 5 -31 3 -4 -4 -150 -8 -199 -5 -21 1 -15 23 34 123 21 43 38 81 39 86 1 4
16 33 33 66 l30 59 28 -62 c15 -34 28 -62 28 -64z"/>
</g>
</svg>
